<svg xmlns="http://www.w3.org/2000/svg" width="32" height="32" viewBox="0 0 24 24" fill="none" stroke="#4CAF50" stroke-width="2" stroke-linecap="round" stroke-linejoin="round">
    <path d="M12 20.94c1.5 0 2.75 1.06 4 1.06c2.09 0 3.75-1.79 3.75-4c0-2.26-1.54-4.24-3.5-4.59c-.53-.09-.92-.57-.92-1.12c0-.55.39-1.03.92-1.12c1.96-.35 3.5-2.33 3.5-4.59c0-2.21-1.66-4-3.75-4c-1.25 0-2.5 1.06-4 1.06c-1.5 0-2.75-1.06-4-1.06C5.66 2.69 4 4.48 4 6.69c0 2.26 1.54 4.24 3.5 4.59c.53.09.92.57.92 1.12c0 .55-.39 1.03-.92 1.12C5.54 13.84 4 15.82 4 18.06c0 2.21 1.66 4 3.75 4c1.25 0 2.5-1.06 4-1.06Z"/>
    <path d="M16 2.75c0 .75-.25 1.5-1 2.25"/>
</svg>
